<?xml version="1.0" encoding="UTF-8"?>
<svg xmlns="http://www.w3.org/2000/svg" version="1.1" viewBox="0 0 76.26 68.77">
  <!-- Generator: Adobe Illustrator 28.6.0, SVG Export Plug-In . SVG Version: 1.2.0 Build 709)  -->
  <g>
    <g id="Layer_1">
      <path d="M7.89,14.3C3.53,14.3,0,11.1,0,7.15S3.53,0,7.89,0h60.48c4.36,0,7.89,3.2,7.89,7.15s-3.53,7.15-7.89,7.15H7.89Z"/>
      <path d="M7.89,68.77c-4.36,0-7.89-3.2-7.89-7.15s3.53-7.15,7.89-7.15h60.48c4.36,0,7.89,3.2,7.89,7.15s-3.53,7.15-7.89,7.15H7.89Z"/>
      <path d="M7.89,41.53c-4.36,0-7.89-3.2-7.89-7.15s3.53-7.15,7.89-7.15h60.48c4.36,0,7.89,3.2,7.89,7.15s-3.53,7.15-7.89,7.15H7.89Z"/>
    </g>
  </g>
</svg>